<svg width="120" height="34" viewBox="0 0 120 34" fill="none" xmlns="http://www.w3.org/2000/svg">
<path d="M6 0H0V32H6V0Z" fill="black"/>
<path d="M22 0C17.7565 0 13.6869 1.68571 10.6863 4.68629C7.68571 7.68687 6 11.7565 6 16C6 20.2435 7.68571 24.3131 10.6863 27.3137C13.6869 30.3143 17.7565 32 22 32V0Z" fill="#E63946"/>
<path d="M36.0682 27H28.5412V6.63636H36.0582C38.133 6.63636 39.9195 7.04403 41.4176 7.85938C42.9223 8.66809 44.0824 9.83475 44.8977 11.3594C45.7131 12.8774 46.1207 14.6937 46.1207 16.8082C46.1207 18.9295 45.7131 20.7524 44.8977 22.277C44.089 23.8016 42.9323 24.9716 41.4276 25.7869C39.9228 26.5956 38.1364 27 36.0682 27ZM33.4631 22.804H35.8793C37.0194 22.804 37.9839 22.6117 38.7727 22.2273C39.5682 21.8362 40.1681 21.2031 40.5724 20.3281C40.9834 19.4465 41.1889 18.2732 41.1889 16.8082C41.1889 15.3433 40.9834 14.1766 40.5724 13.3082C40.1615 12.4332 39.5549 11.8035 38.7528 11.419C37.9574 11.0279 36.9763 10.8324 35.8097 10.8324H33.4631V22.804ZM61.3139 6.63636H66.2259V19.7713C66.2259 21.2893 65.8646 22.6117 65.142 23.7386C64.4195 24.8589 63.4119 25.7273 62.1193 26.3438C60.8267 26.9536 59.3253 27.2585 57.6151 27.2585C55.8849 27.2585 54.3736 26.9536 53.081 26.3438C51.7884 25.7273 50.7841 24.8589 50.0682 23.7386C49.3523 22.6117 48.9943 21.2893 48.9943 19.7713V6.63636H53.9162V19.3438C53.9162 20.0464 54.0687 20.6728 54.3736 21.223C54.6851 21.7732 55.1193 22.2041 55.6761 22.5156C56.233 22.8272 56.8793 22.983 57.6151 22.983C58.3509 22.983 58.9938 22.8272 59.544 22.5156C60.1009 22.2041 60.535 21.7732 60.8466 21.223C61.1581 20.6728 61.3139 20.0464 61.3139 19.3438V6.63636ZM69.3107 27V6.63636H83.5096V10.6335H74.2326V14.8097H82.7837V18.8168H74.2326V23.0028H83.5096V27H69.3107ZM86.592 27V6.63636H91.5138V23.0028H99.9854V27H86.592ZM102.533 27V6.63636H110.945C112.47 6.63636 113.786 6.91146 114.893 7.46165C116.006 8.00521 116.865 8.7874 117.468 9.80824C118.071 10.8224 118.373 12.0256 118.373 13.4176C118.373 14.8295 118.065 16.0294 117.448 17.017C116.832 17.9981 115.957 18.7472 114.823 19.2642C113.69 19.7746 112.347 20.0298 110.796 20.0298H105.477V16.152H109.881C110.624 16.152 111.244 16.0559 111.741 15.8636C112.245 15.6648 112.626 15.3665 112.884 14.9688C113.143 14.5644 113.272 14.0473 113.272 13.4176C113.272 12.7879 113.143 12.2675 112.884 11.8565C112.626 11.4389 112.245 11.1274 111.741 10.9219C111.237 10.7098 110.617 10.6037 109.881 10.6037H107.455V27H102.533ZM113.998 17.6932L119.069 27H113.7L108.728 17.6932H113.998Z" fill="black"/>
</svg>
